<?xml version="1.0" encoding="utf-8"?>
<!-- Generator: Adobe Illustrator 27.3.0, SVG Export Plug-In . SVG Version: 6.00 Build 0)  -->
<svg version="1.1" id="Layer_1" xmlns="http://www.w3.org/2000/svg" xmlns:xlink="http://www.w3.org/1999/xlink" x="0px" y="0px"
	 viewBox="0 0 412 157.5" style="enable-background:new 0 0 412 157.5;" xml:space="preserve">
<style type="text/css">
	.st0{fill:#02A139;}
	.st1{fill:#091800;}
</style>
<polygon class="st0" points="174.3,62.4 174.3,36.2 129,36.2 129,36.2 109.1,36.2 109.1,133.8 129,133.8 129,134 174.3,134 
	174.3,107.7 142.2,107.7 142.2,97.6 167.9,97.6 167.9,71.4 142.2,71.4 142.2,62.4 "/>
<polygon class="st0" points="70.6,36.2 70.6,70.2 53.1,36.6 53.1,36.2 52.9,36.2 20,36.2 19.8,36.2 20,36.6 20,133.8 53.1,133.8 
	53.1,100.2 70.6,133.8 103.8,133.8 103.8,36.2 "/>
<path class="st0" d="M225.6,34.8c-27.9,0-50.4,22.6-50.4,50.4s22.6,50.4,50.4,50.4S276,113.1,276,85.2S253.4,34.8,225.6,34.8z
	 M225.6,101.7c-9.1,0-16.5-7.4-16.5-16.5s7.4-16.5,16.5-16.5S242,76.1,242,85.2S234.7,101.7,225.6,101.7z"/>
<g>
	<path class="st1" d="M295,64.4h-49.8c-1.3,0-2.3-1-2.3-2.3c0-1.3,1-2.3,2.3-2.3H295c1.3,0,2.3,1,2.3,2.3
		C297.3,63.3,296.3,64.4,295,64.4z"/>
	<path class="st1" d="M276,54h-9.2c-1.3,0-2.3-1-2.3-2.3c0-1.3,1-2.3,2.3-2.3h9.2c1.3,0,2.3,1,2.3,2.3C278.3,52.9,277.3,54,276,54z"
		/>
	<path class="st1" d="M306.4,53.6h-19.6c-1.3,0-2.3-1-2.3-2.3c0-1.3,1-2.3,2.3-2.3h19.6c1.3,0,2.3,1,2.3,2.3
		C308.7,52.5,307.7,53.6,306.4,53.6z"/>
	<path class="st1" d="M300.8,97.7H286c-1.3,0-2.3-1-2.3-2.3c0-1.3,1-2.3,2.3-2.3h14.8c1.3,0,2.3,1,2.3,2.3
		C303.1,96.7,302.1,97.7,300.8,97.7z"/>
	<path class="st1" d="M286.6,75.6h-32.4c-1.3,0-2.3-1-2.3-2.3s1-2.3,2.3-2.3h32.4c1.3,0,2.3,1,2.3,2.3S287.9,75.6,286.6,75.6z"/>
	<path class="st1" d="M305.2,75.4H298c-1.3,0-2.3-1-2.3-2.3c0-1.3,1-2.3,2.3-2.3h7.2c1.3,0,2.3,1,2.3,2.3
		C307.5,74.3,306.5,75.4,305.2,75.4z"/>
	<path class="st1" d="M308.8,87.2h-46.6c-1.3,0-2.3-1-2.3-2.3s1-2.3,2.3-2.3h46.6c1.3,0,2.3,1,2.3,2.3S310.1,87.2,308.8,87.2z"/>
	<g>
		<path class="st1" d="M283.8,42.1h30.6l6.3,61.2c1.3-1.3,2.7-2.4,4.2-3.3l-6.2-60.4c-0.1-1.2-1.1-2-2.3-2h-32.6
			c-1.3,0-2.3,1-2.3,2.3C281.6,41.1,282.6,42.1,283.8,42.1z"/>
		<path class="st1" d="M319.9,104.2H279c-1.3,0-2.3,1-2.3,2.3s1,2.3,2.3,2.3h37.9C317.7,107.1,318.7,105.6,319.9,104.2z"/>
	</g>
	<path class="st1" d="M351.4,100.7"/>
	<path class="st1" d="M335.6,102.5c-8.4,0-15.1,6.8-15.1,15.1c0,4.7,2.1,8.8,5.4,11.6h-10.6l-4.2,3.5h24.5c0,0,0,0,0,0
		c8.4,0,15.1-6.8,15.1-15.1S344,102.5,335.6,102.5z M335.6,124.9c-4,0-7.2-3.2-7.2-7.2c0-4,3.2-7.2,7.2-7.2s7.2,3.2,7.2,7.2
		C342.8,121.6,339.6,124.9,335.6,124.9z"/>
	<path class="st1" d="M377.5,104l1.5-23.1l-17.5-23.6c-2.1-3-6-2.8-6-2.8h-27.8l3.5,42.6c0,0,3,0,4.5,0c11,0,19.9,8.6,20.5,19.4h24
		l1-12.4H377.5z M357,80.9l-5.2,6.4h-12.6l-1.8-23.6h18.4L369,80.9H357z"/>
	<path class="st1" d="M335.6,97.1"/>
</g>
</svg>
